<svg width="128" height="128" viewBox="0 0 128 128" fill="none" xmlns="http://www.w3.org/2000/svg">
<rect width="128" height="128" fill="white"/>
<path d="M33.944 87.64C30.4453 87.64 27.224 87.0853 24.28 85.976C21.3787 84.824 18.84 83.224 16.664 81.176C14.488 79.0853 12.8027 76.632 11.608 73.816C10.4133 71 9.816 67.928 9.816 64.6C9.816 61.272 10.4133 58.2 11.608 55.384C12.8027 52.568 14.488 50.136 16.664 48.088C18.8827 45.9973 21.464 44.3973 24.408 43.288C27.352 42.136 30.5733 41.56 34.072 41.56C37.8693 41.56 41.2827 42.1787 44.312 43.416C47.384 44.6533 49.9653 46.4667 52.056 48.856L46.808 53.976C45.0587 52.2267 43.16 50.9467 41.112 50.136C39.1067 49.2827 36.888 48.856 34.456 48.856C32.1093 48.856 29.9333 49.24 27.928 50.008C25.9227 50.776 24.1947 51.864 22.744 53.272C21.2933 54.68 20.1627 56.344 19.352 58.264C18.584 60.184 18.2 62.296 18.2 64.6C18.2 66.8613 18.584 68.952 19.352 70.872C20.1627 72.792 21.2933 74.4773 22.744 75.928C24.1947 77.336 25.9013 78.424 27.864 79.192C29.8267 79.96 32.0027 80.344 34.392 80.344C36.6107 80.344 38.744 80.0027 40.792 79.32C42.8827 78.5947 44.8667 77.4 46.744 75.736L51.48 81.944C49.1333 83.8213 46.4027 85.2507 43.288 86.232C40.216 87.1707 37.1013 87.64 33.944 87.64ZM43.608 80.856V64.088H51.48V81.944L43.608 80.856ZM54.5175 93.4L75.6375 33.112H82.8055L61.6855 93.4H54.5175ZM77.305 87L97.465 42.2H105.657L125.881 87H117.177L99.833 46.616H103.161L85.881 87H77.305ZM86.585 76.632L88.825 70.104H113.017L115.257 76.632H86.585Z" fill="#1E4147"/>
</svg>
