<svg width="128" height="128" viewBox="0 0 128 128" fill="none" xmlns="http://www.w3.org/2000/svg">
<g clip-path="url(#clip0_1_2)">
<rect width="128" height="128" fill="white"/>
<path d="M33.944 87.64C30.4453 87.64 27.224 87.0853 24.28 85.976C21.3787 84.824 18.84 83.224 16.664 81.176C14.488 79.0853 12.8027 76.632 11.608 73.816C10.4133 71 9.816 67.928 9.816 64.6C9.816 61.272 10.4133 58.2 11.608 55.384C12.8027 52.568 14.488 50.136 16.664 48.088C18.8827 45.9973 21.464 44.3973 24.408 43.288C27.352 42.136 30.5733 41.56 34.072 41.56C37.8693 41.56 41.2827 42.1787 44.312 43.416C47.384 44.6533 49.9653 46.4667 52.056 48.856L46.808 53.976C45.0587 52.2267 43.16 50.9467 41.112 50.136C39.1067 49.2827 36.888 48.856 34.456 48.856C32.1093 48.856 29.9333 49.24 27.928 50.008C25.9227 50.776 24.1947 51.864 22.744 53.272C21.2933 54.68 20.1627 56.344 19.352 58.264C18.584 60.184 18.2 62.296 18.2 64.6C18.2 66.8613 18.584 68.952 19.352 70.872C20.1627 72.792 21.2933 74.4773 22.744 75.928C24.1947 77.336 25.9013 78.424 27.864 79.192C29.8267 79.96 32.0027 80.344 34.392 80.344C36.6107 80.344 38.744 80.0027 40.792 79.32C42.8827 78.5947 44.8667 77.4 46.744 75.736L51.48 81.944C49.1333 83.8213 46.4027 85.2507 43.288 86.232C40.216 87.1707 37.1013 87.64 33.944 87.64ZM43.608 80.856V64.088H51.48V81.944L43.608 80.856ZM54.5175 93.4L75.6375 33.112H82.8055L61.6855 93.4H54.5175ZM105.69 87.64C102.276 87.64 99.0975 87.0853 96.1535 85.976C93.2522 84.824 90.7135 83.224 88.5375 81.176C86.4042 79.0853 84.7402 76.632 83.5455 73.816C82.3508 71 81.7535 67.928 81.7535 64.6C81.7535 61.272 82.3508 58.2 83.5455 55.384C84.7402 52.568 86.4255 50.136 88.6015 48.088C90.7775 45.9973 93.3162 44.3973 96.2175 43.288C99.1188 42.136 102.298 41.56 105.754 41.56C109.423 41.56 112.772 42.2 115.802 43.48C118.831 44.7173 121.391 46.5733 123.482 49.048L118.106 54.104C116.484 52.3547 114.671 51.0533 112.666 50.2C110.66 49.304 108.484 48.856 106.138 48.856C103.791 48.856 101.636 49.24 99.6735 50.008C97.7535 50.776 96.0682 51.864 94.6175 53.272C93.2095 54.68 92.1002 56.344 91.2895 58.264C90.5215 60.184 90.1375 62.296 90.1375 64.6C90.1375 66.904 90.5215 69.016 91.2895 70.936C92.1002 72.856 93.2095 74.52 94.6175 75.928C96.0682 77.336 97.7535 78.424 99.6735 79.192C101.636 79.96 103.791 80.344 106.138 80.344C108.484 80.344 110.66 79.9173 112.666 79.064C114.671 78.168 116.484 76.824 118.106 75.032L123.482 80.152C121.391 82.584 118.831 84.44 115.802 85.72C112.772 87 109.402 87.64 105.69 87.64Z" fill="#1E4147"/>
</g>
<defs>
<clipPath id="clip0_1_2">
<rect width="128" height="128" fill="white"/>
</clipPath>
</defs>
</svg>
